<svg viewBox="0 0 100 100" xmlns="http://www.w3.org/2000/svg">
  <!-- Шестерня -->
  <path fill="#333" d="M93.3,55.2l-9.9-5.2c0.2-1.3,0.3-2.6,0.3-4c0-1.4-0.1-2.7-0.3-4l9.9-5.2
    c1.3-0.7,1.8-2.3,1.1-3.6l-5.6-9.7c-0.7-1.3-2.3-1.8-3.6-1.1l-9.9,5.2c-1.9-1.6-4.1-2.9-6.5-3.8V17.9
    c0-1.5-1.2-2.7-2.7-2.7h-11c-1.5,0-2.7,1.2-2.7,2.7v9.9c-2.4,0.9-4.6,2.2-6.5,3.8l-9.9-5.2
    c-1.3-0.7-2.9-0.2-3.6,1.1l-5.6,9.7c-0.7,1.3-0.2,2.9,1.1,3.6l9.9,5.2c-0.2,1.3-0.3,2.6-0.3,4
    c0,1.4,0.1,2.7,0.3,4l-9.9,5.2c-1.3,0.7-1.8,2.3-1.1,3.6l5.6,9.7c0.7,1.3,2.3,1.8,3.6,1.1l9.9-5.2
    c1.9,1.6,4.1,2.9,6.5,3.8v9.9c0,1.5,1.2,2.7,2.7,2.7h11c1.5,0,2.7-1.2,2.7-2.7v-9.9c2.4-0.9,4.6-2.2,6.5-3.8
    l9.9,5.2c1.3,0.7,2.9,0.2,3.6-1.1l5.6-9.7C95.1,57.5,94.6,55.9,93.3,55.2z"/>

  <!-- Крапля оливи -->
  <path fill="#ffcc00" d="
    M50 35
    C46 41, 44 45, 44 48
    C44 52, 47 56, 50 56
    C53 56, 56 52, 56 48
    C56 45, 54 41, 50 35
    Z
  "/>
</svg>
